<svg xmlns="http://www.w3.org/2000/svg" width="48" height="48" fill="none"><path d="M24 48c13.255 0 24-10.745 24-24S37.255 0 24 0 0 10.745 0 24s10.745 24 24 24z" fill="url(#paint0_linear_34411_836)"/><path d="M19.6 35c-.777 0-.645-.294-.914-1.034L16.4 26.441 34 16" fill="#C8DAEA"/><path d="M19.6 35c.6 0 .865-.275 1.2-.6l3.2-3.112-3.992-2.407" fill="#A9C9DD"/><path d="M20.008 28.882l9.672 7.146c1.104.609 1.9.294 2.175-1.025l3.937-18.552c.403-1.617-.616-2.35-1.672-1.87l-23.118 8.914c-1.578.633-1.569 1.513-.287 1.906l5.932 1.851 13.735-8.665c.648-.393 1.243-.181.755.252" fill="url(#paint1_linear_34411_836)"/><defs><linearGradient id="paint0_linear_34411_836" x1="18.002" y1="2.002" x2="6.002" y2="30" gradientUnits="userSpaceOnUse"><stop stop-color="#37AEE2"/><stop offset="1" stop-color="#1E96C8"/></linearGradient><linearGradient id="paint1_linear_34411_836" x1="20.996" y1="25.474" x2="23.56" y2="33.769" gradientUnits="userSpaceOnUse"><stop stop-color="#EFF7FC"/><stop offset="1" stop-color="#fff"/></linearGradient></defs></svg>